<?xml version="1.0" encoding="utf-8"?>
<!-- Generator: Adobe Illustrator 25.2.1, SVG Export Plug-In . SVG Version: 6.00 Build 0)  -->
<svg version="1.1" id="Layer_1" xmlns="http://www.w3.org/2000/svg" xmlns:xlink="http://www.w3.org/1999/xlink" x="0px" y="0px"
	 viewBox="0 0 24 24" style="enable-background:new 0 0 24 24;" xml:space="preserve">
<style type="text/css">
	.st0{enable-background:new    ;}
	.st1{fill:#495057;}
</style>
<g class="st0">
	<path class="st1" d="M14.1,5.3c-0.6,0.6-1.3,0.9-2.1,0.9c-0.8,0-1.5-0.3-2.1-0.9C9.4,4.7,9.1,4,9.1,3.2s0.3-1.5,0.9-2.1
		c0.6-0.6,1.3-0.9,2.1-0.9c0.8,0,1.5,0.3,2.1,0.9c0.6,0.6,0.9,1.3,0.9,2.1S14.6,4.7,14.1,5.3z M9.9,9.9c0.6-0.6,1.3-0.9,2.1-0.9
		c0.8,0,1.5,0.3,2.1,0.9c0.6,0.6,0.9,1.3,0.9,2.1s-0.3,1.5-0.9,2.1C13.5,14.7,12.8,15,12,15c-0.8,0-1.5-0.3-2.1-0.9
		c-0.6-0.6-0.9-1.3-0.9-2.1S9.4,10.5,9.9,9.9z M9.9,18.8c0.6-0.6,1.3-0.9,2.1-0.9c0.8,0,1.5,0.3,2.1,0.9c0.6,0.6,0.9,1.3,0.9,2.1
		s-0.3,1.5-0.9,2.1c-0.6,0.6-1.3,0.9-2.1,0.9c-0.8,0-1.5-0.3-2.1-0.9c-0.6-0.6-0.9-1.3-0.9-2.1S9.4,19.3,9.9,18.8z"/>
</g>
</svg>
