<svg xmlns="http://www.w3.org/2000/svg" xmlns:xlink="http://www.w3.org/1999/xlink" width="94" height="94" viewBox="0 0 94 94"><defs><style>.a{fill:#fff;stroke:#707070;}.b{opacity:0.4;clip-path:url(#a);}</style><clipPath id="a"><rect class="a" width="94" height="94" transform="translate(968 1476)"/></clipPath></defs><g class="b" transform="translate(-968 -1476)"><path d="M86.308,23.493,49.941,3.1a4.729,4.729,0,0,0-4.585,0L8.989,23.493A4.558,4.558,0,0,0,6.459,27.6V71.4a4.718,4.718,0,0,0,2.372,4.111L45.2,95.91a4.729,4.729,0,0,0,4.585,0l36.367-20.4A4.718,4.718,0,0,0,88.521,71.4V27.6A4.29,4.29,0,0,0,86.308,23.493Zm-15.021-4.9,3.795,2.056-3.795,2.53ZM58.638,11.634l7.273,4.111L58.638,19.54Zm-3.162,9.645-4.743,2.53-1.581-.791a3.23,3.23,0,0,0-3.162.158L34.762,30.134a3.107,3.107,0,0,0-1.423,2.688V38.04l-7.906-4.427V26.5L36.659,19.54l1.581.791a3.349,3.349,0,0,0,3,0l14.23-7.748ZM36.5,32.98l11.226-6.957,1.581.791a3.349,3.349,0,0,0,3,0l15.812-8.854v7.115l-8.064,5.06-1.581-.791a3.23,3.23,0,0,0-3.162.158L44.091,36.458a3.107,3.107,0,0,0-1.423,2.688v4.111l-6.325-3.479v-6.8ZM48.36,45.629a1.436,1.436,0,0,1-1.581,0l-.791-.474V39.3l11.226-6.957,1.581.791a3.23,3.23,0,0,0,3.162-.158L77.77,22.86v6.325ZM80.774,23.967l3.162,1.739-3.162,1.739ZM46.779,5.784a1.436,1.436,0,0,1,1.581,0l6.325,3.637L39.664,17.643l-1.581-.791a3.23,3.23,0,0,0-3.162.158L23.694,23.967a3.107,3.107,0,0,0-1.423,2.688v5.218L11.2,25.706ZM10.412,72.667a1.66,1.66,0,0,1-.791-1.423V37.723L15,40.411a1.817,1.817,0,0,1,.949,1.423v1.423a4.7,4.7,0,1,0,3.162,8.854A4.758,4.758,0,0,0,21.955,46.1a4.62,4.62,0,0,0-2.846-2.846V41.834a4.66,4.66,0,0,0-2.688-4.269l-6.8-3.32v-5.85L45.2,48.317c.158.158.474.158.791.316V65.71l-13.44-7.273a1.661,1.661,0,0,1-.791-1.423V53.851A4.628,4.628,0,0,0,34.6,47.843,4.758,4.758,0,0,0,28.6,45a4.7,4.7,0,0,0,0,8.854v3.162a4.558,4.558,0,0,0,2.53,4.111l14.863,8.064V84.526l-13.44-7.273a1.661,1.661,0,0,1-.791-1.423v-5.85a4.918,4.918,0,0,0-2.372-4.111l-5.534-3.162v-.632a4.743,4.743,0,1,0-4.743,4.743,5.1,5.1,0,0,0,3.32-1.265l5.534,3.32a1.66,1.66,0,0,1,.791,1.423v5.85a4.558,4.558,0,0,0,2.53,4.111L46.146,88.32V92.59Zm8.7-24.824a1.494,1.494,0,0,1-1.581,1.581,1.581,1.581,0,1,1,0-3.162A1.494,1.494,0,0,1,19.108,47.843ZM28.6,49.424a1.581,1.581,0,1,1,1.581,1.581A1.494,1.494,0,0,1,28.6,49.424ZM20.69,62.073a1.581,1.581,0,1,1-1.581-1.581A1.494,1.494,0,0,1,20.69,62.073ZM84.727,72.667,49.151,92.59V78.833L64.013,70.77a4.558,4.558,0,0,0,2.53-4.111V60.966a1.519,1.519,0,0,1,.949-1.423l6.957-3.479a4.7,4.7,0,1,0-.158-6.641,3.981,3.981,0,0,0-1.423,3.162v.632L65.911,56.7a4.761,4.761,0,0,0-2.688,4.269v5.692a1.661,1.661,0,0,1-.791,1.423L49.151,75.2V59.86l4.585-2.372a4.7,4.7,0,1,0-.158-6.641,5.1,5.1,0,0,0-1.265,3.32V54.8l-3.162,1.581V48.633c.316,0,.474-.158.791-.316L85.517,28.394V59.543L77.77,63.5a4.7,4.7,0,1,0,.158,6.641,5.1,5.1,0,0,0,1.265-3.32v-.632l6.325-3.162v8.222a1.661,1.661,0,0,1-.791,1.423Zm-8.7-20.081a1.581,1.581,0,1,1,1.581,1.581A1.494,1.494,0,0,1,76.03,52.586ZM55.475,54.167a1.581,1.581,0,1,1,1.581,1.581A1.494,1.494,0,0,1,55.475,54.167ZM76.03,66.817a1.581,1.581,0,1,1-1.581-1.581A1.494,1.494,0,0,1,76.03,66.817Z" transform="translate(967.501 1473.497)"/></g></svg>