<svg xmlns="http://www.w3.org/2000/svg" xmlns:xlink="http://www.w3.org/1999/xlink" width="59" height="59" viewBox="0 0 59 59">
  <defs>
    <clipPath id="clip-path">
      <rect id="Rectangle_1123" data-name="Rectangle 1123" width="22" height="22" transform="translate(-12119 3371)" fill="#2d3079"/>
    </clipPath>
  </defs>
  <g id="Avg_ROI" data-name="Avg ROI" transform="translate(12136 -3354)">
    <rect id="Rectangle_1091" data-name="Rectangle 1091" width="59" height="59" rx="8" transform="translate(-12136 3354)" fill="#f2f3ff"/>
    <g id="Avg_ROI-2" data-name="Avg ROI" transform="translate(2 2)" clip-path="url(#clip-path)">
      <g id="percentage_1_" data-name="percentage (1)" transform="translate(-12118.999 3371)">
        <g id="Group_6183" data-name="Group 6183">
          <g id="Group_6182" data-name="Group 6182">
            <rect id="Rectangle_1125" data-name="Rectangle 1125" width="26.443" height="3.3" transform="translate(0.484 19.182) rotate(-45)" fill="#2d3079"/>
            <path id="Path_4377" data-name="Path 4377" d="M18.941,13.765a5.176,5.176,0,1,0,5.177,5.177A5.182,5.182,0,0,0,18.941,13.765Zm0,7.053a1.876,1.876,0,1,1,1.877-1.876A1.878,1.878,0,0,1,18.941,20.818Z" transform="translate(-2.118 -2.118)" fill="#2d3079"/>
            <path id="Path_4378" data-name="Path 4378" d="M5.177,10.352A5.176,5.176,0,1,0,0,5.176,5.182,5.182,0,0,0,5.177,10.352Zm0-7.052A1.876,1.876,0,1,1,3.3,5.176,1.878,1.878,0,0,1,5.177,3.3Z" transform="translate(-0.001)" fill="#2d3079"/>
          </g>
        </g>
      </g>
    </g>
  </g>
</svg>
