<svg xmlns="http://www.w3.org/2000/svg" xmlns:xlink="http://www.w3.org/1999/xlink" width="72" height="72" viewBox="0 0 72 72">
  <defs>
    <clipPath id="clip-path">
      <rect id="Rectangle_39" data-name="Rectangle 39" width="72" height="72" transform="translate(260 1771)" fill="#fff" stroke="#707070" stroke-width="1"/>
    </clipPath>
  </defs>
  <g id="Mask_Group_300" data-name="Mask Group 300" transform="translate(-260 -1771)" clip-path="url(#clip-path)">
    <g id="_x31_0_math" transform="translate(260.001 1771)">
      <g id="Group_7065" data-name="Group 7065" transform="translate(0 0)">
        <path id="Path_5078" data-name="Path 5078" d="M61.91,1.733H13.769A12.049,12.049,0,0,0,1.733,13.769V61.91A12.049,12.049,0,0,0,13.769,73.945H61.91A12.049,12.049,0,0,0,73.945,61.91V13.769A12.049,12.049,0,0,0,61.91,1.733Zm7.221,12.035V35.432H40.246V6.547H61.91A7.23,7.23,0,0,1,69.131,13.769ZM13.769,6.547H35.432V35.432H6.547V13.769A7.23,7.23,0,0,1,13.769,6.547ZM6.547,61.91V40.246H35.432V69.131H13.769A7.23,7.23,0,0,1,6.547,61.91ZM61.91,69.131H40.246V40.246H69.131V61.91A7.23,7.23,0,0,1,61.91,69.131Z" transform="translate(-1.733 -1.733)" fill="#989898"/>
        <path id="Path_5079" data-name="Path 5079" d="M11.074,20.7h4.814v4.814a2.407,2.407,0,1,0,4.814,0V20.7h4.814a2.407,2.407,0,1,0,0-4.814H20.7V11.074a2.407,2.407,0,1,0-4.814,0v4.814H11.074a2.407,2.407,0,1,0,0,4.814Z" transform="translate(0.962 0.962)" fill="#989898"/>
        <path id="Path_5080" data-name="Path 5080" d="M35.34,18.681H49.783a2.407,2.407,0,0,0,0-4.814H35.34a2.407,2.407,0,1,0,0,4.814Z" transform="translate(10.394 2.983)" fill="#989898"/>
        <path id="Path_5081" data-name="Path 5081" d="M49.783,41.6H35.34a2.407,2.407,0,1,0,0,4.814H49.783a2.407,2.407,0,0,0,0-4.814Z" transform="translate(10.394 13.762)" fill="#989898"/>
        <path id="Path_5082" data-name="Path 5082" d="M49.783,34.667H35.34a2.407,2.407,0,1,0,0,4.814H49.783a2.407,2.407,0,0,0,0-4.814Z" transform="translate(10.394 11.067)" fill="#989898"/>
        <path id="Path_5083" data-name="Path 5083" d="M21.106,41.97l3.4-3.4a2.407,2.407,0,1,0-3.4-3.4l-3.4,3.4-3.4-3.4a2.407,2.407,0,1,0-3.4,3.4l3.4,3.4-3.4,3.406a2.407,2.407,0,1,0,3.4,3.4l3.4-3.4,3.4,3.4a2.407,2.407,0,1,0,3.4-3.4Z" transform="translate(1.554 10.986)" fill="#989898"/>
      </g>
    </g>
  </g>
</svg>
