<svg xmlns="http://www.w3.org/2000/svg" xmlns:xlink="http://www.w3.org/1999/xlink" width="16" height="16" viewBox="0 0 16 16"><defs><style>.a{clip-path:url(#a);}</style><clipPath id="a"><rect width="16" height="16" transform="translate(15.5 11.5)"/></clipPath></defs><g class="a" transform="translate(-15.5 -11.5)"><g transform="translate(17.399 11.5)"><path d="M3.507,1.455A.82.82,0,0,1,4.356.629H7.847a.82.82,0,0,1,.849.826v.9h.629v-.9A1.449,1.449,0,0,0,7.847,0H4.356A1.449,1.449,0,0,0,2.878,1.455v.9h.629Zm0,0"/><path d="M2.382,16H9.82a1.339,1.339,0,0,0,1.274-1.415V4.875H1.109v9.71A1.339,1.339,0,0,0,2.382,16ZM8.106,6.376a.314.314,0,0,1,.629,0v7.43a.314.314,0,0,1-.629,0Zm-2.319,0a.314.314,0,0,1,.629,0v7.43a.314.314,0,0,1-.629,0Zm-2.319,0a.314.314,0,0,1,.629,0v7.43a.314.314,0,0,1-.629,0Zm0,0"/><path d="M.786,4.246h10.63a.786.786,0,0,0,0-1.572H.786a.786.786,0,0,0,0,1.572Zm0,0"/></g></g></svg>