<svg xmlns="http://www.w3.org/2000/svg" xmlns:xlink="http://www.w3.org/1999/xlink" width="14" height="14" viewBox="0 0 14 14">
  <defs>
    <clipPath id="clip-path">
      <rect id="Rectangle_1049" data-name="Rectangle 1049" width="14" height="14" transform="translate(14 14) rotate(180)" fill="#fff"/>
    </clipPath>
  </defs>
  <g id="Mask_Group_70" data-name="Mask Group 70" clip-path="url(#clip-path)">
    <g id="download_7_" data-name="download (7)" transform="translate(0 0.35)">
      <path id="Path_228" data-name="Path 228" d="M14.7,13.3H2.1a.7.7,0,1,0,0,1.4H14.7a.7.7,0,0,0,0-1.4Z" transform="translate(-1.4 -1.4)" fill="#fff"/>
      <path id="Path_229" data-name="Path 229" d="M8.4,1.4a.7.7,0,0,0-.7.7V9.513L5.4,7.2A.7.7,0,1,0,4.4,8.2l3.5,3.5a.7.7,0,0,0,.994,0l3.5-3.5A.7.7,0,0,0,11.4,7.2L9.1,9.513V2.1a.7.7,0,0,0-.7-.7Z" transform="translate(-1.4 -1.4)" fill="#fff"/>
    </g>
  </g>
</svg>
