<svg xmlns="http://www.w3.org/2000/svg" xmlns:xlink="http://www.w3.org/1999/xlink" width="94" height="94" viewBox="0 0 94 94"><defs><style>.a{fill:#fff;stroke:#707070;}.b{opacity:0.4;clip-path:url(#a);}</style><clipPath id="a"><rect class="a" width="94" height="94" transform="translate(913 1133)"/></clipPath></defs><g class="b" transform="translate(-913 -1133)"><g transform="translate(911.484 1131.484)"><path d="M94,78.839H89.452V7.581a1.516,1.516,0,0,0-1.516-1.516H81.871a1.516,1.516,0,0,0-1.516,1.516V18.194H78.647a6.065,6.065,0,0,0-11.745,0h-.384a6.065,6.065,0,0,0-11.745,0H34.679a6.065,6.065,0,0,0-11.745,0H16.677V7.581a1.516,1.516,0,0,0-1.516-1.516H9.1A1.516,1.516,0,0,0,7.581,7.581V78.839H3.032a1.516,1.516,0,0,0-1.516,1.516v9.1a1.516,1.516,0,0,0,1.516,1.516H94a1.516,1.516,0,0,0,1.516-1.516v-9.1A1.516,1.516,0,0,0,94,78.839ZM83.387,9.1h3.032V78.839H83.387ZM16.677,78.839V66.71h1.708a6.065,6.065,0,0,0,11.745,0h.384a6.065,6.065,0,0,0,11.745,0H62.353a6.065,6.065,0,0,0,11.745,0h6.256V78.839ZM39.611,36.387a6.065,6.065,0,0,0,11.745,0h.384a6.065,6.065,0,0,0,11.745,0h.384a6.065,6.065,0,0,0,11.745,0h4.74V48.516H57.421a6.065,6.065,0,0,0-11.745,0h-.384a6.065,6.065,0,0,0-11.745,0h-.384a6.065,6.065,0,0,0-11.745,0h-4.74V36.387Zm2.84-1.516A3.032,3.032,0,1,1,45.484,37.9,3.032,3.032,0,0,1,42.452,34.871Zm12.129,0A3.032,3.032,0,1,1,57.613,37.9a3.032,3.032,0,0,1-3.032-3.032Zm12.129,0A3.032,3.032,0,1,1,69.742,37.9a3.032,3.032,0,0,1-3.032-3.032ZM54.581,50.032A3.032,3.032,0,1,1,51.548,47a3.032,3.032,0,0,1,3.032,3.032Zm-12.129,0A3.032,3.032,0,1,1,39.419,47,3.032,3.032,0,0,1,42.452,50.032Zm-12.129,0A3.032,3.032,0,1,1,27.29,47,3.032,3.032,0,0,1,30.323,50.032Zm-8.9,1.516a6.065,6.065,0,0,0,11.745,0h.384a6.065,6.065,0,0,0,11.745,0h.384a6.065,6.065,0,0,0,11.745,0H80.355V63.677H74.1a6.065,6.065,0,0,0-11.745,0H42.26a6.065,6.065,0,0,0-11.745,0h-.384a6.065,6.065,0,0,0-11.745,0H16.677V51.548Zm49.84,13.645a3.032,3.032,0,1,1-3.032-3.032,3.032,3.032,0,0,1,3.032,3.032Zm-31.839,0a3.032,3.032,0,1,1-3.032-3.032,3.032,3.032,0,0,1,3.032,3.032Zm-12.129,0a3.032,3.032,0,1,1-3.032-3.032A3.032,3.032,0,0,1,27.29,65.194ZM72.774,16.677a3.032,3.032,0,1,1-3.032,3.032,3.032,3.032,0,0,1,3.032-3.032Zm-12.129,0a3.032,3.032,0,1,1-3.032,3.032,3.032,3.032,0,0,1,3.032-3.032Zm-31.839,0a3.032,3.032,0,1,1-3.032,3.032,3.032,3.032,0,0,1,3.032-3.032Zm-5.873,4.548a6.065,6.065,0,0,0,11.745,0H54.773a6.065,6.065,0,0,0,11.745,0H66.9a6.065,6.065,0,0,0,11.745,0h1.708V33.355h-4.74a6.065,6.065,0,0,0-11.745,0h-.384a6.065,6.065,0,0,0-11.745,0h-.384a6.065,6.065,0,0,0-11.745,0H16.677V21.226ZM10.613,9.1h3.032V78.839H10.613ZM92.484,87.935H4.548V81.871H92.484Z"/><path d="M19.71,83.387H7.581a1.516,1.516,0,0,0,0,3.032H19.71a1.516,1.516,0,0,0,0-3.032Z"/><path d="M25.774,83.387H24.258a1.516,1.516,0,0,0,0,3.032h1.516a1.516,1.516,0,0,0,0-3.032Z"/></g></g></svg>