<svg xmlns="http://www.w3.org/2000/svg" xmlns:xlink="http://www.w3.org/1999/xlink" width="246.357" height="139.485" viewBox="0 0 246.357 139.485"><defs><style>.a,.e{fill:#2d3079;}.a{stroke:#707070;}.b{opacity:0.39;}.c{fill:#e2e4eb;}.d{fill:#d9dde8;}.f{fill:#fff;}.g{fill:#5b648f;}.h{opacity:0.1;}.i{fill:#0e1969;}.j{fill:#516ce0;}.k{fill:#8f96ce;}.l{clip-path:url(#a);}</style><clipPath id="a"><rect class="a" width="45" height="45" transform="translate(21.675 30.262)"/></clipPath></defs><g transform="translate(-275.868 -102.938)"><g class="b" transform="translate(273.868 209.866)"><path class="c" d="M529.141,351.167c5.813-1.361,9.069-2.883,9.069-4.49,0-5.8-42.369-10.5-94.634-10.5s-124.56,6.636-128.884,10.5c-6.392,5.712,39.992,11.711,88.413,9.495a1.726,1.726,0,0,1,1.632,1.9v.018c0,4.772,34.859,8.64,77.86,8.64s77.86-3.868,77.86-8.64C560.457,355.258,548.15,352.742,529.141,351.167Z" transform="translate(-312.1 -334.176)"/></g><g transform="translate(350.619 106.169)"><path class="d" d="M485.585,222.633H394.92a3.252,3.252,0,0,1-3.307-3.194l5.577-105.166a3.252,3.252,0,0,1,3.306-3.194h90.665a3.252,3.252,0,0,1,3.307,3.194l-5.577,105.166A3.252,3.252,0,0,1,485.585,222.633Z" transform="translate(-390.937 -110.402)"/><path class="e" d="M484.853,222.577H394.187a3.932,3.932,0,0,1-3.982-3.87l5.578-105.2a3.924,3.924,0,0,1,3.981-3.834H490.43a3.932,3.932,0,0,1,3.982,3.87l-5.578,105.2A3.924,3.924,0,0,1,484.853,222.577ZM399.764,111.021a2.579,2.579,0,0,0-2.63,2.519l-5.578,105.2a2.574,2.574,0,0,0,2.632,2.483h90.665a2.579,2.579,0,0,0,2.631-2.519l5.578-105.2a2.575,2.575,0,0,0-2.632-2.484Z" transform="translate(-390.205 -109.67)"/></g><g transform="translate(359.358 106.349)"><g transform="translate(0)"><rect class="f" width="97.278" height="115.459" rx="8.7" transform="translate(0.676 0.676)"/><path class="g" d="M502.2,226.856H413.268a4.856,4.856,0,0,1-4.85-4.85V114.9a4.856,4.856,0,0,1,4.85-4.85H502.2a4.856,4.856,0,0,1,4.85,4.85v107.11A4.856,4.856,0,0,1,502.2,226.856ZM413.268,111.4a3.5,3.5,0,0,0-3.5,3.5v107.11a3.5,3.5,0,0,0,3.5,3.5H502.2a3.5,3.5,0,0,0,3.5-3.5V114.9a3.5,3.5,0,0,0-3.5-3.5Z" transform="translate(-408.418 -110.045)"/><g class="h" transform="translate(0.244 4.397)"><path class="i" d="M409.643,119.261a.054.054,0,0,1,.108,0c.871,11.833,7.866,103.207,16.318,104.208,9.036,1.07,79.783,4.875,80.14,6.064s-2.879,1.416-2.879,1.416H412.665s-2.182.63-3.307-3.306C408.306,223.957,409.487,131.2,409.643,119.261Z" transform="translate(-408.926 -119.207)"/></g><g transform="translate(6.641 10.433)"><g transform="translate(0 1.711)"><rect class="f" width="14.552" height="14.552" rx="5.209" transform="translate(0.676 0.676)"/><path class="g" d="M434.985,151.258h-9.553a3.179,3.179,0,0,1-3.175-3.175V138.53a3.179,3.179,0,0,1,3.175-3.176h9.553a3.179,3.179,0,0,1,3.176,3.176v9.553A3.179,3.179,0,0,1,434.985,151.258Zm-9.553-14.552a1.826,1.826,0,0,0-1.824,1.824v9.553a1.826,1.826,0,0,0,1.824,1.824h9.553a1.826,1.826,0,0,0,1.824-1.824V138.53a1.826,1.826,0,0,0-1.824-1.824Z" transform="translate(-422.257 -135.354)"/></g><g class="b" transform="translate(2.653 4.222)"><rect class="g" width="10.598" height="10.598" rx="3.794"/></g><g transform="translate(5.089)"><path class="j" d="M437.747,145.258l-4.62-4.62a.9.9,0,1,1,1.274-1.274l3.346,3.346,10.659-10.659a.9.9,0,1,1,1.273,1.274Z" transform="translate(-432.863 -131.787)"/></g><g transform="translate(0 25.373)"><rect class="f" width="14.552" height="14.552" rx="5.209" transform="translate(0.676 0.675)"/><path class="g" d="M434.985,200.569h-9.553a3.179,3.179,0,0,1-3.175-3.176V187.84a3.179,3.179,0,0,1,3.175-3.175h9.553a3.179,3.179,0,0,1,3.176,3.175v9.553A3.179,3.179,0,0,1,434.985,200.569Zm-9.553-14.553a1.826,1.826,0,0,0-1.824,1.824v9.553a1.826,1.826,0,0,0,1.824,1.824h9.553a1.826,1.826,0,0,0,1.824-1.824V187.84a1.826,1.826,0,0,0-1.824-1.824Z" transform="translate(-422.257 -184.665)"/></g><g class="b" transform="translate(2.653 27.884)"><rect class="g" width="10.598" height="10.598" rx="3.794"/></g><g transform="translate(5.089 23.662)"><path class="j" d="M437.747,194.568l-4.62-4.62a.9.9,0,1,1,1.274-1.274l3.346,3.346,10.659-10.658a.9.9,0,1,1,1.273,1.274Z" transform="translate(-432.863 -181.098)"/></g><g transform="translate(0 50.461)"><rect class="f" width="14.552" height="14.552" rx="5.209" transform="translate(0.676 0.675)"/><path class="g" d="M434.985,252.853h-9.553a3.179,3.179,0,0,1-3.175-3.175v-9.553a3.179,3.179,0,0,1,3.175-3.175h9.553a3.179,3.179,0,0,1,3.176,3.175v9.553A3.179,3.179,0,0,1,434.985,252.853ZM425.432,238.3a1.826,1.826,0,0,0-1.824,1.824v9.553a1.826,1.826,0,0,0,1.824,1.823h9.553a1.826,1.826,0,0,0,1.824-1.823v-9.553a1.826,1.826,0,0,0-1.824-1.824Z" transform="translate(-422.257 -236.949)"/></g><g class="b" transform="translate(2.653 52.972)"><rect class="g" width="10.598" height="10.598" rx="3.794"/></g><g transform="translate(5.089 48.75)"><path class="j" d="M437.747,246.852l-4.62-4.62a.9.9,0,1,1,1.274-1.274l3.346,3.347,10.659-10.659a.9.9,0,1,1,1.273,1.273Z" transform="translate(-432.863 -233.382)"/></g><g transform="translate(0 74.123)"><rect class="f" width="14.552" height="14.552" rx="5.209" transform="translate(0.676 0.676)"/><path class="g" d="M434.985,302.163h-9.553a3.179,3.179,0,0,1-3.175-3.175v-9.553a3.179,3.179,0,0,1,3.175-3.176h9.553a3.179,3.179,0,0,1,3.176,3.176v9.553A3.179,3.179,0,0,1,434.985,302.163Zm-9.553-14.552a1.826,1.826,0,0,0-1.824,1.824v9.553a1.826,1.826,0,0,0,1.824,1.824h9.553a1.826,1.826,0,0,0,1.824-1.824v-9.553a1.826,1.826,0,0,0-1.824-1.824Z" transform="translate(-422.257 -286.259)"/></g><g class="b" transform="translate(2.653 76.633)"><rect class="g" width="10.598" height="10.598" rx="3.794"/></g><g transform="translate(5.089 72.411)"><path class="j" d="M437.747,296.163l-4.62-4.621a.9.9,0,1,1,1.274-1.274l3.346,3.346,10.659-10.659a.9.9,0,1,1,1.273,1.274Z" transform="translate(-432.863 -282.691)"/></g></g><g transform="translate(28.614 14.417)"><path class="j" d="M496.892,141.89H468.95a.9.9,0,0,1,0-1.8h27.942a.9.9,0,1,1,0,1.8Z" transform="translate(-468.049 -140.089)"/></g><g transform="translate(28.614 22.739)"><path class="j" d="M507.593,159.235H468.95a.9.9,0,0,1,0-1.8h38.643a.9.9,0,1,1,0,1.8Z" transform="translate(-468.049 -157.434)"/></g><g transform="translate(28.139 18.578)"><path class="j" d="M519.087,150.562H467.96a.9.9,0,0,1,0-1.8h51.127a.9.9,0,0,1,0,1.8Z" transform="translate(-467.059 -148.761)"/></g><g transform="translate(28.614 38.91)"><path class="j" d="M496.892,192.935H468.95a.9.9,0,0,1,0-1.8h27.942a.9.9,0,1,1,0,1.8Z" transform="translate(-468.049 -191.134)"/></g><g transform="translate(28.614 47.233)"><path class="j" d="M507.593,210.28H468.95a.9.9,0,0,1,0-1.8h38.643a.9.9,0,1,1,0,1.8Z" transform="translate(-468.049 -208.479)"/></g><g transform="translate(28.139 43.072)"><path class="j" d="M519.087,201.608H467.96a.9.9,0,0,1,0-1.8h51.127a.9.9,0,0,1,0,1.8Z" transform="translate(-467.059 -199.807)"/></g><g transform="translate(28.614 64.605)"><path class="j" d="M496.892,246.483H468.95a.9.9,0,0,1,0-1.8h27.942a.9.9,0,1,1,0,1.8Z" transform="translate(-468.049 -244.682)"/></g><g transform="translate(28.614 72.928)"><path class="j" d="M507.593,263.828H468.95a.9.9,0,1,1,0-1.8h38.643a.9.9,0,1,1,0,1.8Z" transform="translate(-468.049 -262.027)"/></g><g transform="translate(28.139 68.766)"><path class="j" d="M519.087,255.155H467.96a.9.9,0,0,1,0-1.8h51.127a.9.9,0,0,1,0,1.8Z" transform="translate(-467.059 -253.354)"/></g><g transform="translate(28.614 87.553)"><path class="j" d="M496.892,294.306H468.95a.9.9,0,1,1,0-1.8h27.942a.9.9,0,1,1,0,1.8Z" transform="translate(-468.049 -292.505)"/></g><g transform="translate(28.614 95.876)"><path class="j" d="M507.593,311.652H468.95a.9.9,0,1,1,0-1.8h38.643a.9.9,0,1,1,0,1.8Z" transform="translate(-468.049 -309.851)"/></g><g transform="translate(28.139 91.714)"><path class="j" d="M519.087,302.979H467.96a.9.9,0,0,1,0-1.8h51.127a.9.9,0,0,1,0,1.8Z" transform="translate(-467.059 -301.178)"/></g></g></g><g transform="translate(359.358 106.349)"><g transform="translate(0)"><rect class="f" width="97.278" height="115.459" rx="8.7" transform="translate(0.676 0.676)"/><path class="e" d="M502.2,226.856H413.268a4.856,4.856,0,0,1-4.85-4.85V114.9a4.856,4.856,0,0,1,4.85-4.85H502.2a4.856,4.856,0,0,1,4.85,4.85v107.11A4.856,4.856,0,0,1,502.2,226.856ZM413.268,111.4a3.5,3.5,0,0,0-3.5,3.5v107.11a3.5,3.5,0,0,0,3.5,3.5H502.2a3.5,3.5,0,0,0,3.5-3.5V114.9a3.5,3.5,0,0,0-3.5-3.5Z" transform="translate(-408.418 -110.045)"/></g><g class="h" transform="translate(0.244 4.397)"><path class="k" d="M409.643,119.261a.054.054,0,0,1,.108,0c.871,11.833,7.866,103.207,16.318,104.208,9.036,1.07,79.783,4.875,80.14,6.064s-2.879,1.416-2.879,1.416H412.665s-2.182.63-3.307-3.306C408.306,223.957,409.487,131.2,409.643,119.261Z" transform="translate(-408.926 -119.207)"/></g><g class="l" transform="translate(21.066 26.066)"><g transform="translate(21.742 30.378)"><path class="e" d="M.665,19.163a.665.665,0,0,0,.665-.665V2.565A1.182,1.182,0,0,1,2.51,1.384H29.793a1.182,1.182,0,0,1,1.181,1.181V4.953a.665.665,0,1,0,1.329,0V2.565a2.513,2.513,0,0,0-2.51-2.51H2.51A2.513,2.513,0,0,0,0,2.565V18.5A.665.665,0,0,0,.665,19.163Zm0,0" transform="translate(0 -0.055)"/><path class="e" d="M5.591,15.113a1.038,1.038,0,0,0-1.036,1.036V29.135a1.037,1.037,0,0,0,1.036,1.036h2.98a1.037,1.037,0,0,0,1.036-1.036V16.149a1.038,1.038,0,0,0-1.036-1.036ZM8.278,28.842H5.885v-12.4H8.278Zm0,0" transform="translate(-0.9 -3.03)"/><path class="e" d="M13.876,12.473a1.038,1.038,0,0,0-1.036,1.036v15.1a1.038,1.038,0,0,0,1.036,1.036h2.979a1.037,1.037,0,0,0,1.036-1.036v-15.1a1.037,1.037,0,0,0-1.036-1.036ZM16.562,28.32H14.169V13.8h2.393Zm0,0" transform="translate(-2.537 -2.509)"/><path class="e" d="M4.337,42.088h6.54a.665.665,0,1,0,0-1.329H4.337a.665.665,0,1,0,0,1.329Zm0,0" transform="translate(-0.726 -8.098)"/><path class="e" d="M4.337,46.737h6.54a.665.665,0,1,0,0-1.329H4.337a.665.665,0,1,0,0,1.329Zm0,0" transform="translate(-0.726 -9.017)"/><path class="e" d="M4.337,51.387h6.54a.665.665,0,1,0,0-1.329H4.337a.665.665,0,1,0,0,1.329Zm0,0" transform="translate(-0.726 -9.936)"/><path class="e" d="M15.033,42.088h4.24a.665.665,0,1,0,0-1.329h-4.24a.665.665,0,1,0,0,1.329Zm0,0" transform="translate(-2.839 -8.098)"/><path class="e" d="M15.033,46.737h4.24a.665.665,0,1,0,0-1.329h-4.24a.665.665,0,1,0,0,1.329Zm0,0" transform="translate(-2.839 -9.017)"/><path class="e" d="M15.033,51.387h4.24a.665.665,0,1,0,0-1.329h-4.24a.665.665,0,1,0,0,1.329Zm0,0" transform="translate(-2.839 -9.936)"/><path class="e" d="M27.512,10.888a.664.664,0,0,0,.857-.385L29.929,6.4a.673.673,0,0,0-.586-.992h-4.5a.665.665,0,1,0,0,1.329h2.245l-6.222,3.975L14.15,5.542a.665.665,0,0,0-.77-.029L7.174,9.59A.665.665,0,0,0,7.9,10.7l5.81-3.817,6.714,5.162a.665.665,0,0,0,.763.033L28,7.731l-.873,2.3A.664.664,0,0,0,27.512,10.888Zm0,0" transform="translate(-1.359 -1.112)"/><path class="e" d="M41.356,18.364H32.3V9.31a.665.665,0,1,0-1.329,0v9.054H28.648V14.414a1.037,1.037,0,0,0-1.036-1.036h-2.98A1.037,1.037,0,0,0,23.6,14.414v3.949H22.388a3.521,3.521,0,0,0-.387.021V16.34A1.037,1.037,0,0,0,20.965,15.3h-2.98a1.038,1.038,0,0,0-1.036,1.037V27.857a1.038,1.038,0,0,0,1.036,1.036h.825v1.186H3.042a.665.665,0,0,0,0,1.329H18.81v11.6a3.562,3.562,0,0,0,.8,2.249H2.51a1.182,1.182,0,0,1-1.181-1.181V22.855a.665.665,0,0,0-1.329,0V44.076a2.513,2.513,0,0,0,2.51,2.51H41.356a3.582,3.582,0,0,0,3.578-3.578V21.942A3.582,3.582,0,0,0,41.356,18.364Zm-16.43-3.656h2.393v3.656H24.926ZM18.81,21.942v5.622h-.532V16.633h2.393V18.8A3.58,3.58,0,0,0,18.81,21.942ZM43.6,43.008a2.251,2.251,0,0,1-2.249,2.249H22.388a2.251,2.251,0,0,1-2.249-2.249V21.942A2.253,2.253,0,0,1,22,19.727c.276-.048-1.153-.034,19.355-.034A2.251,2.251,0,0,1,43.6,21.942Zm0,0" transform="translate(0 -1.752)"/><path class="e" d="M46.578,23.74H27.61a1.186,1.186,0,0,0-1.185,1.185v3.95a1.186,1.186,0,0,0,1.185,1.185H41.261a.665.665,0,1,0,0-1.329H27.755v-3.66H46.433v3.66H43.92a.665.665,0,0,0,0,1.329h2.657a1.186,1.186,0,0,0,1.185-1.185v-3.95A1.186,1.186,0,0,0,46.578,23.74Zm0,0" transform="translate(-5.222 -4.735)"/><path class="e" d="M35.312,33.132H27.847a1.141,1.141,0,0,0-1.14,1.14V39.44a1.142,1.142,0,0,0,1.14,1.141h7.466a1.142,1.142,0,0,0,1.14-1.141V34.272A1.142,1.142,0,0,0,35.312,33.132Zm-.189,6.119H28.036v-4.79h7.087Zm0,0" transform="translate(-5.278 -6.591)"/><path class="e" d="M49.477,33.132H42.011a1.141,1.141,0,0,0-1.14,1.14V39.44a1.142,1.142,0,0,0,1.14,1.141h7.466a1.142,1.142,0,0,0,1.14-1.141V34.272A1.142,1.142,0,0,0,49.477,33.132Zm-.189,6.119H42.2v-4.79h7.087Zm0,0" transform="translate(-8.077 -6.591)"/><path class="e" d="M45,38.275H47.86a.665.665,0,0,0,0-1.329H45a.665.665,0,0,0,0,1.329Zm0,0" transform="translate(-8.76 -7.345)"/><path class="e" d="M30.831,37.922H31.6v.767a.665.665,0,0,0,1.329,0v-.767h.767a.665.665,0,1,0,0-1.329h-.767v-.767a.665.665,0,1,0-1.329,0v.767h-.767a.665.665,0,1,0,0,1.329Zm0,0" transform="translate(-5.961 -6.992)"/><path class="e" d="M35.312,43.622H27.847a1.141,1.141,0,0,0-1.14,1.14V49.93a1.142,1.142,0,0,0,1.14,1.141h7.466a1.142,1.142,0,0,0,1.14-1.141V44.762A1.142,1.142,0,0,0,35.312,43.622Zm-.189,6.119H28.036v-4.79h7.087Zm0,0" transform="translate(-5.278 -8.664)"/><path class="e" d="M49.477,43.622H42.011a1.141,1.141,0,0,0-1.14,1.14V49.93a1.142,1.142,0,0,0,1.14,1.141h7.466a1.142,1.142,0,0,0,1.14-1.141V44.762A1.142,1.142,0,0,0,49.477,43.622Zm-.189,6.119H42.2v-4.79h7.087Zm0,0" transform="translate(-8.077 -8.664)"/><path class="e" d="M45,48.764H47.86a.665.665,0,0,0,0-1.329H45a.665.665,0,0,0,0,1.329Zm0,0" transform="translate(-8.76 -9.418)"/><path class="e" d="M31.354,49.527c.347,0,.456-.18,1.013-.737.557.557.666.737,1.012.737a.666.666,0,0,0,.47-1.135l-.543-.542.543-.543a.665.665,0,0,0-.94-.94l-.542.543-.542-.543a.665.665,0,0,0-.94.94l.542.543-.542.542A.665.665,0,0,0,31.354,49.527Zm0,0" transform="translate(-6.064 -9.168)"/><path class="e" d="M47.478,46.19a.709.709,0,1,1-.709-.709A.709.709,0,0,1,47.478,46.19Zm0,0" transform="translate(-9.102 -9.032)"/><path class="e" d="M47.478,49.987a.709.709,0,1,1-.709-.709A.709.709,0,0,1,47.478,49.987Zm0,0" transform="translate(-9.102 -9.782)"/></g></g><rect class="e" width="75" height="3" rx="1.5" transform="translate(12.742 17.328)"/><rect class="e" width="75" height="3" rx="1.5" transform="translate(12.742 30.328)"/><rect class="e" width="62" height="3" rx="1.5" transform="translate(12.742 43.328)"/><rect class="e" width="23" height="3" rx="1.5" transform="translate(12.742 56.328)"/><rect class="e" width="23" height="3" rx="1.5" transform="translate(12.742 69.328)"/><rect class="e" width="23" height="3" rx="1.5" transform="translate(12.742 82.328)"/><rect class="e" width="23" height="3" rx="1.5" transform="translate(12.742 95.328)"/></g><g class="h" transform="translate(376.031 105.97)"><g transform="translate(0 0)"><rect class="i" width="2.854" height="7.847" rx="1.427"/></g><g transform="translate(10.523 0)"><rect class="i" width="2.854" height="7.847" rx="1.427"/></g><g transform="translate(21.046 0)"><rect class="i" width="2.854" height="7.847" rx="1.427"/></g><g transform="translate(31.568 0)"><rect class="i" width="2.854" height="7.847" rx="1.427"/></g><g transform="translate(42.091 0)"><rect class="i" width="2.854" height="7.847" rx="1.427"/></g><g transform="translate(52.614 0)"><rect class="i" width="2.854" height="7.847" rx="1.427"/></g><g transform="translate(63.137 0)"><rect class="i" width="2.854" height="7.847" rx="1.427"/></g></g><g transform="translate(376.923 102.938)"><rect class="e" width="2.854" height="7.848" rx="1.427"/><g transform="translate(10.523)"><rect class="e" width="2.854" height="7.848" rx="1.427"/></g><g transform="translate(21.046)"><rect class="e" width="2.854" height="7.848" rx="1.427"/></g><g transform="translate(31.568)"><rect class="e" width="2.854" height="7.848" rx="1.427"/></g><g transform="translate(42.091)"><rect class="e" width="2.854" height="7.848" rx="1.427"/></g><g transform="translate(52.614)"><rect class="e" width="2.854" height="7.848" rx="1.427"/></g><g transform="translate(63.137)"><rect class="e" width="2.854" height="7.848" rx="1.427"/></g></g></g></svg>