<svg xmlns="http://www.w3.org/2000/svg" xmlns:xlink="http://www.w3.org/1999/xlink" width="59" height="59" viewBox="0 0 59 59">
  <defs>
    <clipPath id="clip-path">
      <rect id="Rectangle_1371" data-name="Rectangle 1371" width="22" height="22" transform="translate(-11386.5 3373)" fill="#2d3079"/>
    </clipPath>
  </defs>
  <g id="Failure_Pings" data-name="Failure Pings" transform="translate(11351.001 -3354)">
    <rect id="Rectangle_1343" data-name="Rectangle 1343" width="59" height="59" rx="8" transform="translate(-11351.001 3354)" fill="#f2f3ff"/>
    <g id="Mask_Group_249" data-name="Mask Group 249" transform="translate(53.5)" clip-path="url(#clip-path)">
      <g id="remove_1_" data-name="remove (1)" transform="translate(-11386.5 3373)">
        <path id="Path_4962" data-name="Path 4962" d="M11,0A11,11,0,1,0,22,11,11.012,11.012,0,0,0,11,0Zm0,0" fill="#2d3079"/>
        <path id="Path_4963" data-name="Path 4963" d="M15.051,13.755a.917.917,0,1,1-1.3,1.3L11,12.3,8.245,15.051a.917.917,0,1,1-1.3-1.3L9.7,11,6.949,8.245a.917.917,0,0,1,1.3-1.3L11,9.7l2.755-2.755a.917.917,0,1,1,1.3,1.3L12.3,11Zm0,0" fill="#fafafa"/>
      </g>
    </g>
  </g>
</svg>
