<svg xmlns="http://www.w3.org/2000/svg" xmlns:xlink="http://www.w3.org/1999/xlink" width="16" height="16" viewBox="0 0 16 16"><defs><style>.a{fill:#2d3079;}.b{clip-path:url(#a);}</style><clipPath id="a"><rect class="a" width="16" height="16" transform="translate(1306.587 480.587)"/></clipPath></defs><g class="b" transform="translate(-1306.587 -480.587)"><g transform="translate(1307 481.029)"><path class="a" d="M12.348,3.785H9.829V5.28h2.519c.749,0,1.331.382,1.331.712V12.62c0,.329-.581.712-1.331.712H2.825c-.749,0-1.33-.383-1.33-.712V5.992c0-.329.581-.712,1.33-.712H5.344V3.785H2.825C1.241,3.785,0,4.755,0,5.992v6.629c0,1.238,1.241,2.207,2.825,2.207h9.523c1.584,0,2.825-.969,2.825-2.207V5.992C15.174,4.754,13.933,3.785,12.348,3.785Z" transform="translate(0 0.288)"/><path class="a" d="M9.491,7.224a.745.745,0,0,0-.528.219l-.936.936V.774a.747.747,0,1,0-1.495,0V8.429l-.986-.986A.747.747,0,0,0,4.488,8.5L6.72,10.731a.745.745,0,0,0,.528.219h.011a.744.744,0,0,0,.528-.219L10.019,8.5a.747.747,0,0,0-.528-1.276Z" transform="translate(0.358 -0.027)"/></g></g></svg>