<svg xmlns="http://www.w3.org/2000/svg" xmlns:xlink="http://www.w3.org/1999/xlink" width="16" height="16" viewBox="0 0 16 16"><defs><style>.a{fill:#2d3079;}.b{clip-path:url(#a);}</style><clipPath id="a"><rect class="a" width="16" height="16" transform="translate(1427 328)"/></clipPath></defs><g class="b" transform="translate(-1427 -328)"><path class="a" d="M10.5,6H10V4A4,4,0,0,0,2,4V6H1.5A1.5,1.5,0,0,0,0,7.5v7A1.5,1.5,0,0,0,1.5,16h9A1.5,1.5,0,0,0,12,14.5v-7A1.5,1.5,0,0,0,10.5,6ZM3.333,4A2.667,2.667,0,0,1,8.667,4V6H3.333Zm0,0" transform="translate(1429 328)"/></g></svg>