<svg xmlns="http://www.w3.org/2000/svg" width="246.357" height="139.485" viewBox="0 0 246.357 139.485"><defs><style>.a{opacity:0.39;}.b{fill:#e2e4eb;}.c{fill:#d9dde8;}.d{fill:#2d3079;}.e{fill:#fff;}.f{fill:#5b648f;}.g{opacity:0.1;}.h{fill:#0e1969;}.i{fill:#516ce0;}.j{fill:#8f96ce;}.k{fill:#c6c7ed;}</style></defs><g transform="translate(-836.768 -614.262)"><g transform="translate(560.9 511.323)"><g class="a" transform="translate(273.868 209.866)"><path class="b" d="M529.141,351.167c5.813-1.361,9.069-2.883,9.069-4.49,0-5.8-42.369-10.5-94.634-10.5s-124.56,6.636-128.884,10.5c-6.392,5.712,39.992,11.711,88.413,9.495a1.726,1.726,0,0,1,1.632,1.9v.018c0,4.772,34.859,8.64,77.86,8.64s77.86-3.868,77.86-8.64C560.457,355.258,548.15,352.742,529.141,351.167Z" transform="translate(-312.1 -334.176)"/></g><g transform="translate(350.619 106.169)"><path class="c" d="M485.585,222.633H394.92a3.252,3.252,0,0,1-3.307-3.194l5.577-105.166a3.252,3.252,0,0,1,3.306-3.194h90.665a3.252,3.252,0,0,1,3.307,3.194l-5.577,105.166A3.252,3.252,0,0,1,485.585,222.633Z" transform="translate(-390.937 -110.402)"/><path class="d" d="M484.853,222.577H394.187a3.932,3.932,0,0,1-3.982-3.87l5.578-105.2a3.924,3.924,0,0,1,3.981-3.834H490.43a3.932,3.932,0,0,1,3.982,3.87l-5.578,105.2A3.924,3.924,0,0,1,484.853,222.577ZM399.764,111.021a2.579,2.579,0,0,0-2.63,2.519l-5.578,105.2a2.574,2.574,0,0,0,2.632,2.483h90.665a2.579,2.579,0,0,0,2.631-2.519l5.578-105.2a2.575,2.575,0,0,0-2.632-2.484Z" transform="translate(-390.205 -109.67)"/></g><g transform="translate(359.358 106.349)"><g transform="translate(0)"><rect class="e" width="97.278" height="115.459" rx="8.7" transform="translate(0.676 0.676)"/><path class="f" d="M502.2,226.856H413.268a4.856,4.856,0,0,1-4.85-4.85V114.9a4.856,4.856,0,0,1,4.85-4.85H502.2a4.856,4.856,0,0,1,4.85,4.85v107.11A4.856,4.856,0,0,1,502.2,226.856ZM413.268,111.4a3.5,3.5,0,0,0-3.5,3.5v107.11a3.5,3.5,0,0,0,3.5,3.5H502.2a3.5,3.5,0,0,0,3.5-3.5V114.9a3.5,3.5,0,0,0-3.5-3.5Z" transform="translate(-408.418 -110.045)"/><g class="g" transform="translate(0.244 4.397)"><path class="h" d="M409.643,119.261a.054.054,0,0,1,.108,0c.871,11.833,7.866,103.207,16.318,104.208,9.036,1.07,79.783,4.875,80.14,6.064s-2.879,1.416-2.879,1.416H412.665s-2.182.63-3.307-3.306C408.306,223.957,409.487,131.2,409.643,119.261Z" transform="translate(-408.926 -119.207)"/></g><g transform="translate(6.641 10.433)"><g transform="translate(0 1.711)"><rect class="e" width="14.552" height="14.552" rx="5.209" transform="translate(0.676 0.676)"/><path class="f" d="M434.985,151.258h-9.553a3.179,3.179,0,0,1-3.175-3.175V138.53a3.179,3.179,0,0,1,3.175-3.176h9.553a3.179,3.179,0,0,1,3.176,3.176v9.553A3.179,3.179,0,0,1,434.985,151.258Zm-9.553-14.552a1.826,1.826,0,0,0-1.824,1.824v9.553a1.826,1.826,0,0,0,1.824,1.824h9.553a1.826,1.826,0,0,0,1.824-1.824V138.53a1.826,1.826,0,0,0-1.824-1.824Z" transform="translate(-422.257 -135.354)"/></g><g class="a" transform="translate(2.653 4.222)"><rect class="f" width="10.598" height="10.598" rx="3.794"/></g><g transform="translate(5.089)"><path class="i" d="M437.747,145.258l-4.62-4.62a.9.9,0,1,1,1.274-1.274l3.346,3.346,10.659-10.659a.9.9,0,1,1,1.273,1.274Z" transform="translate(-432.863 -131.787)"/></g><g transform="translate(0 25.373)"><rect class="e" width="14.552" height="14.552" rx="5.209" transform="translate(0.676 0.675)"/><path class="f" d="M434.985,200.569h-9.553a3.179,3.179,0,0,1-3.175-3.176V187.84a3.179,3.179,0,0,1,3.175-3.175h9.553a3.179,3.179,0,0,1,3.176,3.175v9.553A3.179,3.179,0,0,1,434.985,200.569Zm-9.553-14.553a1.826,1.826,0,0,0-1.824,1.824v9.553a1.826,1.826,0,0,0,1.824,1.824h9.553a1.826,1.826,0,0,0,1.824-1.824V187.84a1.826,1.826,0,0,0-1.824-1.824Z" transform="translate(-422.257 -184.665)"/></g><g class="a" transform="translate(2.653 27.884)"><rect class="f" width="10.598" height="10.598" rx="3.794"/></g><g transform="translate(5.089 23.662)"><path class="i" d="M437.747,194.568l-4.62-4.62a.9.9,0,1,1,1.274-1.274l3.346,3.346,10.659-10.658a.9.9,0,1,1,1.273,1.274Z" transform="translate(-432.863 -181.098)"/></g><g transform="translate(0 50.461)"><rect class="e" width="14.552" height="14.552" rx="5.209" transform="translate(0.676 0.675)"/><path class="f" d="M434.985,252.853h-9.553a3.179,3.179,0,0,1-3.175-3.175v-9.553a3.179,3.179,0,0,1,3.175-3.175h9.553a3.179,3.179,0,0,1,3.176,3.175v9.553A3.179,3.179,0,0,1,434.985,252.853ZM425.432,238.3a1.826,1.826,0,0,0-1.824,1.824v9.553a1.826,1.826,0,0,0,1.824,1.823h9.553a1.826,1.826,0,0,0,1.824-1.823v-9.553a1.826,1.826,0,0,0-1.824-1.824Z" transform="translate(-422.257 -236.949)"/></g><g class="a" transform="translate(2.653 52.972)"><rect class="f" width="10.598" height="10.598" rx="3.794"/></g><g transform="translate(5.089 48.75)"><path class="i" d="M437.747,246.852l-4.62-4.62a.9.9,0,1,1,1.274-1.274l3.346,3.347,10.659-10.659a.9.9,0,1,1,1.273,1.273Z" transform="translate(-432.863 -233.382)"/></g><g transform="translate(0 74.123)"><rect class="e" width="14.552" height="14.552" rx="5.209" transform="translate(0.676 0.676)"/><path class="f" d="M434.985,302.163h-9.553a3.179,3.179,0,0,1-3.175-3.175v-9.553a3.179,3.179,0,0,1,3.175-3.176h9.553a3.179,3.179,0,0,1,3.176,3.176v9.553A3.179,3.179,0,0,1,434.985,302.163Zm-9.553-14.552a1.826,1.826,0,0,0-1.824,1.824v9.553a1.826,1.826,0,0,0,1.824,1.824h9.553a1.826,1.826,0,0,0,1.824-1.824v-9.553a1.826,1.826,0,0,0-1.824-1.824Z" transform="translate(-422.257 -286.259)"/></g><g class="a" transform="translate(2.653 76.633)"><rect class="f" width="10.598" height="10.598" rx="3.794"/></g><g transform="translate(5.089 72.411)"><path class="i" d="M437.747,296.163l-4.62-4.621a.9.9,0,1,1,1.274-1.274l3.346,3.346,10.659-10.659a.9.9,0,1,1,1.273,1.274Z" transform="translate(-432.863 -282.691)"/></g></g><g transform="translate(28.614 14.417)"><path class="i" d="M496.892,141.89H468.95a.9.9,0,0,1,0-1.8h27.942a.9.9,0,1,1,0,1.8Z" transform="translate(-468.049 -140.089)"/></g><g transform="translate(28.614 22.739)"><path class="i" d="M507.593,159.235H468.95a.9.9,0,0,1,0-1.8h38.643a.9.9,0,1,1,0,1.8Z" transform="translate(-468.049 -157.434)"/></g><g transform="translate(28.139 18.578)"><path class="i" d="M519.087,150.562H467.96a.9.9,0,0,1,0-1.8h51.127a.9.9,0,0,1,0,1.8Z" transform="translate(-467.059 -148.761)"/></g><g transform="translate(28.614 38.91)"><path class="i" d="M496.892,192.935H468.95a.9.9,0,0,1,0-1.8h27.942a.9.9,0,1,1,0,1.8Z" transform="translate(-468.049 -191.134)"/></g><g transform="translate(28.614 47.233)"><path class="i" d="M507.593,210.28H468.95a.9.9,0,0,1,0-1.8h38.643a.9.9,0,1,1,0,1.8Z" transform="translate(-468.049 -208.479)"/></g><g transform="translate(28.139 43.072)"><path class="i" d="M519.087,201.608H467.96a.9.9,0,0,1,0-1.8h51.127a.9.9,0,0,1,0,1.8Z" transform="translate(-467.059 -199.807)"/></g><g transform="translate(28.614 64.605)"><path class="i" d="M496.892,246.483H468.95a.9.9,0,0,1,0-1.8h27.942a.9.9,0,1,1,0,1.8Z" transform="translate(-468.049 -244.682)"/></g><g transform="translate(28.614 72.928)"><path class="i" d="M507.593,263.828H468.95a.9.9,0,1,1,0-1.8h38.643a.9.9,0,1,1,0,1.8Z" transform="translate(-468.049 -262.027)"/></g><g transform="translate(28.139 68.766)"><path class="i" d="M519.087,255.155H467.96a.9.9,0,0,1,0-1.8h51.127a.9.9,0,0,1,0,1.8Z" transform="translate(-467.059 -253.354)"/></g><g transform="translate(28.614 87.553)"><path class="i" d="M496.892,294.306H468.95a.9.9,0,1,1,0-1.8h27.942a.9.9,0,1,1,0,1.8Z" transform="translate(-468.049 -292.505)"/></g><g transform="translate(28.614 95.876)"><path class="i" d="M507.593,311.652H468.95a.9.9,0,1,1,0-1.8h38.643a.9.9,0,1,1,0,1.8Z" transform="translate(-468.049 -309.851)"/></g><g transform="translate(28.139 91.714)"><path class="i" d="M519.087,302.979H467.96a.9.9,0,0,1,0-1.8h51.127a.9.9,0,0,1,0,1.8Z" transform="translate(-467.059 -301.178)"/></g></g></g><g transform="translate(359.358 106.349)"><g transform="translate(0)"><rect class="e" width="97.278" height="115.459" rx="8.7" transform="translate(0.676 0.676)"/><path class="d" d="M502.2,226.856H413.268a4.856,4.856,0,0,1-4.85-4.85V114.9a4.856,4.856,0,0,1,4.85-4.85H502.2a4.856,4.856,0,0,1,4.85,4.85v107.11A4.856,4.856,0,0,1,502.2,226.856ZM413.268,111.4a3.5,3.5,0,0,0-3.5,3.5v107.11a3.5,3.5,0,0,0,3.5,3.5H502.2a3.5,3.5,0,0,0,3.5-3.5V114.9a3.5,3.5,0,0,0-3.5-3.5Z" transform="translate(-408.418 -110.045)"/></g><g class="g" transform="translate(0.244 4.397)"><path class="j" d="M409.643,119.261a.054.054,0,0,1,.108,0c.871,11.833,7.866,103.207,16.318,104.208,9.036,1.07,79.783,4.875,80.14,6.064s-2.879,1.416-2.879,1.416H412.665s-2.182.63-3.307-3.306C408.306,223.957,409.487,131.2,409.643,119.261Z" transform="translate(-408.926 -119.207)"/></g><g transform="translate(6.641 10.433)"><g transform="translate(0 1.711)"><rect class="e" width="14.552" height="14.552" rx="5.209" transform="translate(0.676 0.676)"/><path class="d" d="M434.985,151.258h-9.553a3.179,3.179,0,0,1-3.175-3.175V138.53a3.179,3.179,0,0,1,3.175-3.176h9.553a3.179,3.179,0,0,1,3.176,3.176v9.553A3.179,3.179,0,0,1,434.985,151.258Zm-9.553-14.552a1.826,1.826,0,0,0-1.824,1.824v9.553a1.826,1.826,0,0,0,1.824,1.824h9.553a1.826,1.826,0,0,0,1.824-1.824V138.53a1.826,1.826,0,0,0-1.824-1.824Z" transform="translate(-422.257 -135.354)"/></g><g class="a" transform="translate(2.653 4.222)"><rect class="k" width="10.598" height="10.598" rx="2.79"/></g><g transform="translate(5.089)"><path class="d" d="M437.747,145.258l-4.62-4.62a.9.9,0,1,1,1.274-1.274l3.346,3.346,10.659-10.659a.9.9,0,1,1,1.273,1.274Z" transform="translate(-432.863 -131.787)"/></g><g transform="translate(0 25.373)"><rect class="e" width="14.552" height="14.552" rx="5.209" transform="translate(0.676 0.675)"/><path class="d" d="M434.985,200.569h-9.553a3.179,3.179,0,0,1-3.175-3.176V187.84a3.179,3.179,0,0,1,3.175-3.175h9.553a3.179,3.179,0,0,1,3.176,3.175v9.553A3.179,3.179,0,0,1,434.985,200.569Zm-9.553-14.553a1.826,1.826,0,0,0-1.824,1.824v9.553a1.826,1.826,0,0,0,1.824,1.824h9.553a1.826,1.826,0,0,0,1.824-1.824V187.84a1.826,1.826,0,0,0-1.824-1.824Z" transform="translate(-422.257 -184.665)"/></g><g class="a" transform="translate(2.653 27.884)"><rect class="k" width="10.598" height="10.598" rx="2.79"/></g><g transform="translate(5.089 23.662)"><path class="d" d="M437.747,194.568l-4.62-4.62a.9.9,0,1,1,1.274-1.274l3.346,3.346,10.659-10.658a.9.9,0,1,1,1.273,1.274Z" transform="translate(-432.863 -181.098)"/></g><g transform="translate(0 50.461)"><rect class="e" width="14.552" height="14.552" rx="5.209" transform="translate(0.676 0.675)"/><path class="d" d="M434.985,252.853h-9.553a3.179,3.179,0,0,1-3.175-3.175v-9.553a3.179,3.179,0,0,1,3.175-3.175h9.553a3.179,3.179,0,0,1,3.176,3.175v9.553A3.179,3.179,0,0,1,434.985,252.853ZM425.432,238.3a1.826,1.826,0,0,0-1.824,1.824v9.553a1.826,1.826,0,0,0,1.824,1.823h9.553a1.826,1.826,0,0,0,1.824-1.823v-9.553a1.826,1.826,0,0,0-1.824-1.824Z" transform="translate(-422.257 -236.949)"/></g><g class="a" transform="translate(2.653 52.972)"><rect class="k" width="10.598" height="10.598" rx="2.79"/></g><g transform="translate(5.089 48.75)"><path class="d" d="M437.747,246.852l-4.62-4.62a.9.9,0,1,1,1.274-1.274l3.346,3.347,10.659-10.659a.9.9,0,1,1,1.273,1.273Z" transform="translate(-432.863 -233.382)"/></g><g transform="translate(0 74.123)"><rect class="e" width="14.552" height="14.552" rx="5.209" transform="translate(0.676 0.676)"/><path class="d" d="M434.985,302.163h-9.553a3.179,3.179,0,0,1-3.175-3.175v-9.553a3.179,3.179,0,0,1,3.175-3.176h9.553a3.179,3.179,0,0,1,3.176,3.176v9.553A3.179,3.179,0,0,1,434.985,302.163Zm-9.553-14.552a1.826,1.826,0,0,0-1.824,1.824v9.553a1.826,1.826,0,0,0,1.824,1.824h9.553a1.826,1.826,0,0,0,1.824-1.824v-9.553a1.826,1.826,0,0,0-1.824-1.824Z" transform="translate(-422.257 -286.259)"/></g><g class="a" transform="translate(2.653 76.633)"><rect class="k" width="10.598" height="10.598" rx="2.79"/></g><g transform="translate(5.089 72.411)"><path class="d" d="M437.747,296.163l-4.62-4.621a.9.9,0,1,1,1.274-1.274l3.346,3.346,10.659-10.659a.9.9,0,1,1,1.273,1.274Z" transform="translate(-432.863 -282.691)"/></g></g><g transform="translate(28.614 14.417)"><path class="d" d="M496.892,141.89H468.95a.9.9,0,0,1,0-1.8h27.942a.9.9,0,1,1,0,1.8Z" transform="translate(-468.049 -140.089)"/></g><g transform="translate(28.614 22.739)"><path class="d" d="M507.593,159.235H468.95a.9.9,0,0,1,0-1.8h38.643a.9.9,0,1,1,0,1.8Z" transform="translate(-468.049 -157.434)"/></g><g transform="translate(28.139 18.578)"><path class="d" d="M519.087,150.562H467.96a.9.9,0,0,1,0-1.8h51.127a.9.9,0,0,1,0,1.8Z" transform="translate(-467.059 -148.761)"/></g><g transform="translate(28.614 38.91)"><path class="d" d="M496.892,192.935H468.95a.9.9,0,0,1,0-1.8h27.942a.9.9,0,1,1,0,1.8Z" transform="translate(-468.049 -191.134)"/></g><g transform="translate(28.614 47.233)"><path class="d" d="M507.593,210.28H468.95a.9.9,0,0,1,0-1.8h38.643a.9.9,0,1,1,0,1.8Z" transform="translate(-468.049 -208.479)"/></g><g transform="translate(28.139 43.072)"><path class="d" d="M519.087,201.608H467.96a.9.9,0,0,1,0-1.8h51.127a.9.9,0,0,1,0,1.8Z" transform="translate(-467.059 -199.807)"/></g><g transform="translate(28.614 64.605)"><path class="d" d="M496.892,246.483H468.95a.9.9,0,0,1,0-1.8h27.942a.9.9,0,1,1,0,1.8Z" transform="translate(-468.049 -244.682)"/></g><g transform="translate(28.614 72.928)"><path class="d" d="M507.593,263.828H468.95a.9.9,0,1,1,0-1.8h38.643a.9.9,0,1,1,0,1.8Z" transform="translate(-468.049 -262.027)"/></g><g transform="translate(28.139 68.766)"><path class="d" d="M519.087,255.155H467.96a.9.9,0,0,1,0-1.8h51.127a.9.9,0,0,1,0,1.8Z" transform="translate(-467.059 -253.354)"/></g><g transform="translate(28.614 87.553)"><path class="d" d="M496.892,294.306H468.95a.9.9,0,1,1,0-1.8h27.942a.9.9,0,1,1,0,1.8Z" transform="translate(-468.049 -292.505)"/></g><g transform="translate(28.614 95.876)"><path class="d" d="M507.593,311.652H468.95a.9.9,0,1,1,0-1.8h38.643a.9.9,0,1,1,0,1.8Z" transform="translate(-468.049 -309.851)"/></g><g transform="translate(28.139 91.714)"><path class="d" d="M519.087,302.979H467.96a.9.9,0,0,1,0-1.8h51.127a.9.9,0,0,1,0,1.8Z" transform="translate(-467.059 -301.178)"/></g></g><g class="g" transform="translate(376.031 105.97)"><g transform="translate(0 0)"><rect class="h" width="2.854" height="7.847" rx="1.427"/></g><g transform="translate(10.523 0)"><rect class="h" width="2.854" height="7.847" rx="1.427"/></g><g transform="translate(21.046 0)"><rect class="h" width="2.854" height="7.847" rx="1.427"/></g><g transform="translate(31.568 0)"><rect class="h" width="2.854" height="7.847" rx="1.427"/></g><g transform="translate(42.091 0)"><rect class="h" width="2.854" height="7.847" rx="1.427"/></g><g transform="translate(52.614 0)"><rect class="h" width="2.854" height="7.847" rx="1.427"/></g><g transform="translate(63.137 0)"><rect class="h" width="2.854" height="7.847" rx="1.427"/></g></g><g transform="translate(376.923 102.938)"><rect class="d" width="2.854" height="7.848" rx="1.427"/><g transform="translate(10.523)"><rect class="d" width="2.854" height="7.848" rx="1.427"/></g><g transform="translate(21.046)"><rect class="d" width="2.854" height="7.848" rx="1.427"/></g><g transform="translate(31.568)"><rect class="d" width="2.854" height="7.848" rx="1.427"/></g><g transform="translate(42.091)"><rect class="d" width="2.854" height="7.848" rx="1.427"/></g><g transform="translate(52.614)"><rect class="d" width="2.854" height="7.848" rx="1.427"/></g><g transform="translate(63.137)"><rect class="d" width="2.854" height="7.848" rx="1.427"/></g></g></g></g></svg>