<svg xmlns="http://www.w3.org/2000/svg" xmlns:xlink="http://www.w3.org/1999/xlink" width="59" height="59" viewBox="0 0 59 59">
  <defs>
    <clipPath id="clip-path">
      <rect id="Rectangle_1208" data-name="Rectangle 1208" width="22" height="22" transform="translate(-12117 3373)" fill="#2d3079"/>
    </clipPath>
  </defs>
  <g id="MSME_Rank_" data-name="MSME Rank " transform="translate(12136 -3354)">
    <rect id="Rectangle_1091" data-name="Rectangle 1091" width="59" height="59" rx="8" transform="translate(-12136 3354)" fill="#f2f3ff"/>
    <g id="MSME_Rank_2" data-name="MSME Rank " clip-path="url(#clip-path)">
      <g id="business-and-trade_2_" data-name="business-and-trade (2)" transform="translate(-12117 3372.918)">
        <path id="Path_4421" data-name="Path 4421" d="M11.944,1.714,1.87.183a1.625,1.625,0,0,0-1.3.357A1.639,1.639,0,0,0,0,1.769V21.083A.919.919,0,0,0,.917,22H3.9V17.188a1.6,1.6,0,0,1,1.6-1.6H7.792a1.6,1.6,0,0,1,1.6,1.6V22h3.9V3.3a1.605,1.605,0,0,0-1.347-1.586Zm-6.9,11.807H3.667a.687.687,0,0,1,0-1.375H5.042a.688.688,0,1,1,0,1.375Zm0-2.75H3.667a.687.687,0,1,1,0-1.375H5.042a.687.687,0,0,1,0,1.375Zm0-2.75H3.667a.688.688,0,0,1,0-1.375H5.042a.688.688,0,0,1,0,1.375Zm0-2.75H3.667a.688.688,0,1,1,0-1.375H5.042a.688.688,0,1,1,0,1.375Zm4.583,8.25H8.25a.687.687,0,0,1,0-1.375H9.625a.688.688,0,0,1,0,1.375Zm0-2.75H8.25a.687.687,0,0,1,0-1.375H9.625a.687.687,0,0,1,0,1.375Zm0-2.75H8.25a.688.688,0,0,1,0-1.375H9.625a.688.688,0,0,1,0,1.375Zm0-2.75H8.25a.687.687,0,0,1,0-1.375H9.625a.688.688,0,1,1,0,1.375Z" fill="#2d3079"/>
        <path id="Path_4422" data-name="Path 4422" d="M20.735,9.939,14.208,8.572V22H20.4A1.606,1.606,0,0,0,22,20.4v-8.89A1.6,1.6,0,0,0,20.735,9.939ZM18.563,19.25H17.188a.688.688,0,0,1,0-1.375h1.375a.688.688,0,0,1,0,1.375Zm0-2.75H17.188a.688.688,0,0,1,0-1.375h1.375a.688.688,0,0,1,0,1.375Zm0-2.75H17.188a.688.688,0,0,1,0-1.375h1.375a.688.688,0,0,1,0,1.375Z" fill="#2d3079"/>
      </g>
    </g>
  </g>
</svg>
