<svg xmlns="http://www.w3.org/2000/svg" xmlns:xlink="http://www.w3.org/1999/xlink" width="16" height="16" viewBox="0 0 16 16"><defs><style>.a,.c{fill:#fff;}.a{stroke:#707070;}.b{clip-path:url(#a);}</style><clipPath id="a"><rect class="a" width="16" height="16" transform="translate(401 468)"/></clipPath></defs><g class="b" transform="translate(-401 -468)"><path class="c" d="M8,0a8,8,0,1,0,8,8A8.009,8.009,0,0,0,8,0Zm.52,12.747c-.38.063-1.136.222-1.52.253a.936.936,0,0,1-.819-.426,1,1,0,0,1-.121-.916L7.572,7.5H6A1.88,1.88,0,0,1,7.48,5.752,5.789,5.789,0,0,1,9,5.5a1.206,1.206,0,0,1,.819.426,1,1,0,0,1,.121.916L8.428,11H10A1.77,1.77,0,0,1,8.52,12.747ZM9,5a1,1,0,1,1,1-1A1,1,0,0,1,9,5Z" transform="translate(401 468)"/></g></svg>