<svg xmlns="http://www.w3.org/2000/svg" xmlns:xlink="http://www.w3.org/1999/xlink" width="144" height="144" viewBox="0 0 144 144"><defs><style>.a{fill:#fff;stroke:#707070;}.b{fill:#dddfff;opacity:0.4;}.c{clip-path:url(#a);}.d{fill:#efefff;}.e{fill:#2d3079;}</style><clipPath id="a"><rect class="a" width="66" height="66" transform="translate(910.878 449.878)"/></clipPath></defs><g transform="translate(-888 -449)"><rect class="b" width="144" height="144" rx="72" transform="translate(888 449)"/><rect class="b" width="104" height="104" rx="52" transform="translate(908 469)"/><g class="c" transform="translate(16.122 38.122)"><g transform="translate(911 456.576)"><path class="d" d="M66.273,38.811H50.93L38.173,31.369,59.7,20.18v-1.1A4.384,4.384,0,0,0,55.314,14.7H9.284A4.384,4.384,0,0,0,4.9,19.084v1.1l21.513,11.19L4.9,43.195v2.192A4.384,4.384,0,0,0,9.284,49.77H20.243V62.922a2.2,2.2,0,0,0,2.192,2.192H66.273a2.2,2.2,0,0,0,2.192-2.192V41A2.2,2.2,0,0,0,66.273,38.811ZM61.889,54.154H26.819V49.77h35.07Z" transform="translate(-3.804 -13.604)"/><g transform="translate(0 0)"><path class="e" d="M65.736,37.178h-5.48V18.546a5.486,5.486,0,0,0-5.48-5.48H8.746a5.486,5.486,0,0,0-5.48,5.48v26.3a5.486,5.486,0,0,0,5.48,5.48H18.61V62.384A3.288,3.288,0,0,0,21.9,65.672H65.736a3.288,3.288,0,0,0,3.288-3.288V40.465A3.288,3.288,0,0,0,65.736,37.178Zm-15.047,0L39.907,30.889l18.157-9.442v15.73ZM8.746,15.259h46.03a3.288,3.288,0,0,1,3.288,3.288v.431l-26.3,13.677L5.459,18.977v-.431a3.288,3.288,0,0,1,3.288-3.288Zm14.808,15.6L5.459,40.8V21.447ZM8.746,48.137a3.288,3.288,0,0,1-3.288-3.288V43.3L25.892,32.074l5.364,2.788a1.1,1.1,0,0,0,1.01,0l5.342-2.777,8.729,5.093H21.9a3.288,3.288,0,0,0-3.288,3.288v7.672ZM66.832,62.384a1.1,1.1,0,0,1-1.1,1.1H21.9a1.1,1.1,0,0,1-1.1-1.1V40.465a1.1,1.1,0,0,1,1.1-1.1H65.736a1.1,1.1,0,0,1,1.1,1.1Z" transform="translate(-3.267 -13.067)"/><path class="e" d="M81.667,55.533h2.192v2.192H81.667Z" transform="translate(-29.061 -27.039)"/><path class="e" d="M88.2,55.533h4.384v2.192H88.2Z" transform="translate(-31.211 -27.039)"/><path class="e" d="M72.1,65.333H37.029a1.1,1.1,0,0,0-1.1,1.1v4.384a1.1,1.1,0,0,0,1.1,1.1H72.1a1.1,1.1,0,0,0,1.1-1.1V66.429A1.1,1.1,0,0,0,72.1,65.333ZM71,69.717H38.125V67.525H71Z" transform="translate(-14.014 -30.263)"/><path class="e" d="M35.933,78.4h4.384v2.192H35.933Z" transform="translate(-14.014 -34.562)"/><path class="e" d="M45.733,78.4H56.693v2.192H45.733Z" transform="translate(-17.239 -34.562)"/><path class="e" d="M84.933,78.4h4.384v2.192H84.933Z" transform="translate(-30.136 -34.562)"/><path class="e" d="M65.333,78.4H76.293v2.192H65.333Z" transform="translate(-23.687 -34.562)"/><path class="e" d="M35.933,58.8h4.384v2.192H35.933Z" transform="translate(-14.014 -28.113)"/><path class="e" d="M45.733,58.8H55.6v2.192H45.733Z" transform="translate(-17.239 -28.113)"/></g></g></g></g></svg>