<svg xmlns="http://www.w3.org/2000/svg" xmlns:xlink="http://www.w3.org/1999/xlink" width="59" height="59" viewBox="0 0 59 59">
  <defs>
    <clipPath id="clip-path">
      <rect id="Rectangle_1206" data-name="Rectangle 1206" width="22" height="22" transform="translate(-12117 3373)" fill="#2d3079"/>
    </clipPath>
  </defs>
  <g id="Invoice_Value_Range" data-name="Invoice Value Range" transform="translate(12136 -3354)">
    <rect id="Rectangle_1091" data-name="Rectangle 1091" width="59" height="59" rx="8" transform="translate(-12136 3354)" fill="#f2f3ff"/>
    <g id="Invoice_Value_Range-2" data-name="Invoice Value Range" clip-path="url(#clip-path)">
      <g id="rupee_4_" data-name="rupee (4)" transform="translate(-12117 3373)">
        <path id="Path_4420" data-name="Path 4420" d="M17.981,0H4.019V2.774H8.943a4.168,4.168,0,0,1,3.923,2.774H4.019V8.322h8.847A4.168,4.168,0,0,1,8.943,11.1H4.019V13.87L12.148,22l1.962-1.962L7.942,13.87h1a6.947,6.947,0,0,0,6.8-5.548h2.243V5.548H15.738a6.906,6.906,0,0,0-1.251-2.774h3.494Z" fill="#2d3079"/>
      </g>
    </g>
  </g>
</svg>
