<svg xmlns="http://www.w3.org/2000/svg" xmlns:xlink="http://www.w3.org/1999/xlink" width="16" height="16" viewBox="0 0 16 16"><defs><style>.a{fill:#2d3079;}.b{clip-path:url(#a);}</style><clipPath id="a"><rect class="a" width="16" height="16" transform="translate(1241 288)"/></clipPath></defs><g class="b" transform="translate(-1241 -288)"><g transform="translate(1241 288)"><path class="a" d="M15.414,2.081l-1.5-1.5A2,2,0,0,0,12.5,0H12V4H2.667V0H1.333A1.333,1.333,0,0,0,0,1.333V14.667A1.333,1.333,0,0,0,1.333,16H14.667A1.333,1.333,0,0,0,16,14.667V3.5A2,2,0,0,0,15.414,2.081ZM13.333,13.333H2.667V6.623H13.333Z"/><rect class="a" width="2" height="2.667" transform="translate(8.667 0)"/><rect class="a" width="8" height="1.333" transform="translate(4 8)"/><rect class="a" width="8" height="1.333" transform="translate(4 10.667)"/></g></g></svg>