<svg xmlns="http://www.w3.org/2000/svg" xmlns:xlink="http://www.w3.org/1999/xlink" width="16" height="16" viewBox="0 0 16 16"><defs><style>.a,.c{fill:#fff;}.b{clip-path:url(#a);}.c{fill-rule:evenodd;}</style><clipPath id="a"><rect class="a" width="16" height="16" transform="translate(1008 614)"/></clipPath></defs><g class="b" transform="translate(-1008 -614)"><g transform="translate(934.4 612.4)"><path class="c" d="M88,12.779a3.21,3.21,0,1,0,0,.021Zm-2.4.021,1.28.96-.96,1.28L84,13.6V10.8h1.6ZM78.4,4V2.4h4V4Zm11.2,8.8a4.8,4.8,0,1,1-9.6,0v-.031a4.8,4.8,0,0,1,5.6-4.7V7.2H75.2v6.4h4v1.6H73.6V2.4H76V1.6h1.6V4.8H76V4h-.8V5.6H85.6V4h-.8v.8H83.2V1.6h1.6v.8h2.4V8.643a4.885,4.885,0,0,1,.9.67,4.783,4.783,0,0,1,1.5,3.446Z"/></g></g></svg>