<svg xmlns="http://www.w3.org/2000/svg" xmlns:xlink="http://www.w3.org/1999/xlink" width="59" height="59" viewBox="0 0 59 59">
  <defs>
    <clipPath id="clip-path">
      <rect id="Rectangle_1370" data-name="Rectangle 1370" width="22" height="22" transform="translate(-11751 3373)" fill="#2d3079"/>
    </clipPath>
  </defs>
  <g id="Successful_Pings" data-name="Successful Pings" transform="translate(11755.998 -3354)">
    <rect id="Rectangle_1092" data-name="Rectangle 1092" width="59" height="59" rx="8" transform="translate(-11755.998 3354)" fill="#f2f3ff"/>
    <g id="Mask_Group_248" data-name="Mask Group 248" transform="translate(13)" clip-path="url(#clip-path)">
      <g id="checked_6_" data-name="checked (6)" transform="translate(-11751 3373)">
        <g id="Group_6616" data-name="Group 6616">
          <path id="Path_4961" data-name="Path 4961" d="M11,0A11,11,0,1,0,22,11,11.013,11.013,0,0,0,11,0Zm6.148,8.105-7.03,6.975a1.082,1.082,0,0,1-1.516.028L4.88,11.717A1.118,1.118,0,0,1,4.8,10.173a1.091,1.091,0,0,1,1.544-.055l2.95,2.7,6.286-6.286a1.111,1.111,0,0,1,1.571,1.571Z" fill="#2d3079"/>
        </g>
      </g>
    </g>
  </g>
</svg>
