<svg xmlns="http://www.w3.org/2000/svg" xmlns:xlink="http://www.w3.org/1999/xlink" width="16" height="16" viewBox="0 0 16 16"><defs><style>.a{fill:#fff;}.b{clip-path:url(#a);}</style><clipPath id="a"><rect class="a" width="16" height="16" transform="translate(1339 288)"/></clipPath></defs><g class="b" transform="translate(-1339 -288)"><g transform="translate(1339 288.032)"><path class="a" d="M15.541,9.686a.419.419,0,0,0-.419.419v3.724a1.26,1.26,0,0,1-1.258,1.258H2.1A1.26,1.26,0,0,1,.839,13.829V2.9A1.259,1.259,0,0,1,2.1,1.643H5.82A.419.419,0,1,0,5.82.8H2.1A2.1,2.1,0,0,0,0,2.9V13.829a2.1,2.1,0,0,0,2.1,2.1H13.864a2.1,2.1,0,0,0,2.1-2.1V10.105A.419.419,0,0,0,15.541,9.686Zm0,0"/><path class="a" d="M6.557,7.479l6.123-6.123L14.655,3.33,8.532,9.454Zm0,0"/><path class="a" d="M5.558,10.453l2.182-.6L6.163,8.271Zm0,0"/><path class="a" d="M15.2.318a1.05,1.05,0,0,0-1.483,0l-.445.445,1.975,1.975.445-.445a1.049,1.049,0,0,0,0-1.483Zm0,0"/></g></g></svg>