<svg xmlns="http://www.w3.org/2000/svg" xmlns:xlink="http://www.w3.org/1999/xlink" width="16" height="16" viewBox="0 0 16 16"><defs><style>.a{clip-path:url(#a);}</style><clipPath id="a"><rect width="16" height="16" transform="translate(1471 480)"/></clipPath></defs><g class="a" transform="translate(-1471 -480)"><g transform="translate(1471 482.672)"><g transform="translate(0 0)"><path d="M15.95,8.669c-.133-.2-2.93-4.995-7.925-4.995S.233,8.469.1,8.669a.6.6,0,0,0,0,.666c.133.2,2.93,4.995,7.925,4.995s7.792-4.8,7.925-4.995A1.135,1.135,0,0,0,15.95,8.669ZM8.025,12.332A3.33,3.33,0,1,1,11.355,9,3.3,3.3,0,0,1,8.025,12.332Z" transform="translate(0 -3.674)"/></g><g transform="translate(6.027 3.33)"><path d="M10.285,8.253a2,2,0,1,0,2,2A1.962,1.962,0,0,0,10.285,8.253Zm.666,2a.666.666,0,1,1,.666-.666A.629.629,0,0,1,10.951,10.251Z" transform="translate(-8.287 -8.253)"/></g></g></g></svg>